<svg xmlns="http://www.w3.org/2000/svg" width="380" height="639" fill="none"><g clip-path="url(#a)"><mask id="b" width="59" height="72" x="37" y="525" maskUnits="userSpaceOnUse" style="mask-type:luminance"><path fill="#fff" d="M37.276 525.182h58.151v71.485h-58.15v-71.485Z"/></mask><g mask="url(#b)"><mask id="c" width="59" height="72" x="37" y="525" maskUnits="userSpaceOnUse" style="mask-type:luminance"><path fill="#fff" d="M82.724 596.615v-.302l-32.75-48.782v49.084H37.276v-71.433h12.698v.261l32.75 48.76v-49.021h12.703v71.433z"/></mask><g mask="url(#c)"><path fill="#000" d="M37.276 525.182h58.151v71.329h-58.15v-71.329Z"/></g></g><mask id="d" width="20" height="28" x="80" y="612" maskUnits="userSpaceOnUse" style="mask-type:luminance"><path fill="#fff" d="M80.755 612.807h19.219v26.25h-19.22v-26.25Z"/></mask><g mask="url(#d)"><mask id="e" width="20" height="28" x="80" y="612" maskUnits="userSpaceOnUse" style="mask-type:luminance"><path fill="#fff" d="M95.546 625.927c0 4.823-4.39 8.912-10 9.354v-18.713c5.61.442 10 4.531 10 9.359M85.49 612.828c-.15-.01-.302-.01-.453-.01-.161-.011-.328-.011-.5-.011h-1.99c-.171 0-.338 0-.51.011h-1.281v26.213h1c.26.006.52.006.791.006h1.99c.271 0 .531 0 .792-.006h.161l.057-.01c1.86-.104 3.662-.49 5.329-1.141a15.9 15.9 0 0 0 4.53-2.682c2.902-2.469 4.5-5.771 4.5-9.271-.01-6.917-6.327-12.677-14.416-13.099"/></mask><g mask="url(#e)"><path fill="#000" d="M80.755 612.807H99.9v26.25H80.755z"/></g></g><mask id="f" width="24" height="28" x="110" y="612" maskUnits="userSpaceOnUse" style="mask-type:luminance"><path fill="#fff" d="M110.964 612.828h22.125v26.266h-22.125z"/></mask><g mask="url(#f)"><mask id="g" width="24" height="28" x="110" y="612" maskUnits="userSpaceOnUse" style="mask-type:luminance"><path fill="#fff" d="m127.839 612.828-3.615 5.287-2.198 3.25-2.291-3.37-3.521-5.167h-5.25l8.432 12.396.328.49v13.343h4.5v-13.229l.422-.614 8.443-12.386z"/></mask><g mask="url(#g)"><path fill="#000" d="M110.964 612.828h22.125v26.177h-22.125z"/></g></g><mask id="h" width="59" height="73" x="107" y="525" maskUnits="userSpaceOnUse" style="mask-type:luminance"><path fill="#fff" d="M107.104 525.12H166v72.203h-58.896z"/></mask><g mask="url(#h)"><mask id="i" width="59" height="73" x="107" y="525" maskUnits="userSpaceOnUse" style="mask-type:luminance"><path fill="#fff" d="M151.464 568.719c0 8.031-6.74 14.573-15.021 14.573s-15.021-6.542-15.021-14.573v-15.156c0-8.032 6.74-14.563 15.021-14.563s15.021 6.531 15.021 14.563zm5.719-35.271c-5.308-5.146-12.641-8.328-20.74-8.328-16.198 0-29.339 12.729-29.339 28.443v15.156c0 15.719 13.141 28.453 29.339 28.453 16.203 0 29.344-12.734 29.344-28.453v-15.156c0-7.855-3.281-14.974-8.594-20.115"/></mask><g mask="url(#i)"><path fill="#000" d="M107.104 525.12h58.678v71.974h-58.678z"/></g></g><mask id="j" width="23" height="28" x="143" y="612" maskUnits="userSpaceOnUse" style="mask-type:luminance"><path fill="#fff" d="M143.688 612.641h21.796v26.458h-21.796z"/></mask><g mask="url(#j)"><mask id="k" width="23" height="28" x="143" y="612" maskUnits="userSpaceOnUse" style="mask-type:luminance"><path fill="#fff" d="M160.87 612.641v18.614l-12.651-18.604v-.01h-4.531v26.401h4.531v-18.62l12.651 18.599v.021h4.531v-26.401z"/></mask><g mask="url(#k)"><path fill="#000" d="M143.688 612.641h21.713v26.375h-21.713z"/></g></g><mask id="l" width="25" height="28" x="177" y="612" maskUnits="userSpaceOnUse" style="mask-type:luminance"><path fill="#fff" d="M177.099 612.406h24.875v26.719h-24.875z"/></mask><g mask="url(#l)"><mask id="m" width="25" height="28" x="177" y="612" maskUnits="userSpaceOnUse" style="mask-type:luminance"><path fill="#fff" d="m186.229 629.057.63-1.51 2.682-6.391 2.672 6.391.625 1.51zm5.792-13.088-.922-1.912-.49-1.031-.297-.62h-1.552l-.297.62-.495 1.031-.906 1.901-9.963 23.089h4.942l2.839-6.781h9.312l2.839 6.781h4.937z"/></mask><g mask="url(#m)"><path fill="#000" d="M177.099 612.406h24.875v26.625h-24.875z"/></g></g><mask id="n" width="49" height="73" x="177" y="524" maskUnits="userSpaceOnUse" style="mask-type:luminance"><path fill="#fff" d="M177.062 524.859H226v72.084h-48.938z"/></mask><g mask="url(#n)"><mask id="o" width="49" height="73" x="177" y="524" maskUnits="userSpaceOnUse" style="mask-type:luminance"><path fill="#fff" d="M212.359 554.099c0 1.932-.687 3.76-2.005 5.281-1.411 1.651-3.432 2.761-5.682 3.13-.412.068-.792.11-1.109.131-.25-.011-.511-.011-.761-.011H189.99v-25.39h12.984c5.177 0 9.385 3.838 9.385 8.557zm13.521 0v-8.313c0-11.536-10.276-20.927-22.906-20.927h-25.912v72.068h12.928v-21.896h12.984c.156 0 .328 0 .49-.01 4.895.307 8.729 4.047 8.729 8.526v13.38h13.51v-13.38c0-5.526-2.323-10.719-6.552-14.636.271-.25.552-.52.833-.802 3.797-3.849 5.886-8.823 5.886-14.01"/></mask><g mask="url(#o)"><path fill="#000" d="M177.062 524.859h48.818v72.084h-48.818z"/></g></g><mask id="p" width="25" height="28" x="213" y="612" maskUnits="userSpaceOnUse" style="mask-type:luminance"><path fill="#fff" d="M213.141 612.641h24.422v26.427h-24.422z"/></mask><g mask="url(#p)"><mask id="q" width="25" height="28" x="213" y="612" maskUnits="userSpaceOnUse" style="mask-type:luminance"><path fill="#fff" d="M233.052 612.641h-.01v.02l-2.719 3.99-4.958 7.302-4.974-7.312-2.719-4h-4.531v26.401h4.531v-18.62l2.719 3.989 2.323 3.433 2.64 3.89 2.641-3.89 2.318-3.412 2.718-3.989v18.599h4.532v-26.401z"/></mask><g mask="url(#q)"><path fill="#000" d="M213.141 612.641h24.422v26.427h-24.422z"/></g></g><mask id="r" width="5" height="28" x="253" y="612" maskUnits="userSpaceOnUse" style="mask-type:luminance"><path fill="#fff" d="M253.136 612.641h4.531v26.401h-4.531z"/></mask><g mask="url(#r)"><path fill="#000" d="M253.136 612.641h4.531v26.406h-4.531z"/></g><mask id="s" width="20" height="28" x="270" y="612" maskUnits="userSpaceOnUse" style="mask-type:luminance"><path fill="#fff" d="M270.255 612.13h19.573v26.985h-19.573z"/></mask><g mask="url(#s)"><mask id="t" width="20" height="28" x="270" y="612" maskUnits="userSpaceOnUse" style="mask-type:luminance"><path fill="#fff" d="M274.515 625.589c0 4.442 3.453 8.369 8.203 9.349.761.161 6.099.244 6.891.244.068 0 .146 0 .219-.01v3.88h-.219c-.812 0-6.182-.062-6.963-.182-3.417-.51-6.558-2.109-8.829-4.521-2.302-2.437-3.562-5.547-3.562-8.76 0-3.209 1.26-6.328 3.562-8.761 2.271-2.406 5.412-4.01 8.829-4.515.781-.125 6.151-.183 6.963-.183h.219v3.881c-.073-.011-.151-.011-.219-.011-.792 0-6.13.078-6.891.24-4.75.979-8.203 4.911-8.203 9.349"/></mask><g mask="url(#t)"><path fill="#000" d="M270.255 612.13h19.573v26.912h-19.573z"/></g></g><mask id="u" width="330" height="201" x="22" y="292" maskUnits="userSpaceOnUse" style="mask-type:luminance"><path fill="#fff" d="M22.203 292.604h329.13v199.761H22.203z"/></mask><g mask="url(#u)"><mask id="v" width="330" height="200" x="22" y="292" maskUnits="userSpaceOnUse" style="mask-type:luminance"><path fill="#fff" d="M347.297 491.62H22.677l16.38-78.318 8.068-38.578 6.11-29.24 1.343-6.38 2.62 3.318 10.88 13.802 11.01 13.958 10 12.688 11.011 13.963 4.906 6.219.401-.318 32.958-25.864 30.693-24.078 20.651-16.198 20.047-15.729 18.052-14.162 17.5-13.729.448-.354.302.573 12.359 23.349 13.891 26.25 18.318 34.62 55.932 105.692 4.51 8.516z"/></mask><g mask="url(#v)"><path fill="#EFEDEE" d="M.229-.047H379.77v510.391H.229V-.046Z"/></g></g><mask id="w" width="331" height="202" x="22" y="291" maskUnits="userSpaceOnUse" style="mask-type:luminance"><path fill="#fff" d="M22 291.604h330.667v200.761H22z"/></mask><g mask="url(#w)"><mask id="x" width="330" height="202" x="22" y="291" maskUnits="userSpaceOnUse" style="mask-type:luminance"><path fill="#fff" d="M23.23 491.182h327.109l-104.724-197.88-.026.021-140.672 110.349-50.099-63.542zm328.578.891H22.136l.11-.542 32.093-153.448 50.729 64.349.359-.291 140.469-110.198 45.12 85.271z"/></mask><g mask="url(#x)"><path fill="#fff" d="M.23-.047h379.54v510.391H.229V-.046Z"/></g></g><mask id="y" width="199" height="367" x="50" y="28" maskUnits="userSpaceOnUse" style="mask-type:luminance"><path fill="#fff" d="M50.167 28.667h198.5v365.812h-198.5z"/></mask><g mask="url(#y)"><mask id="z" width="199" height="367" x="50" y="28" maskUnits="userSpaceOnUse" style="mask-type:luminance"><path fill="#fff" d="m106.708 394.162-56.442-69.797L112.349 28.74l136.047 255.713z"/></mask><g mask="url(#z)"><path fill="#EFEDEE" d="M.23-.047h379.54v510.391H.229V-.046Z"/></g></g><mask id="A" width="72" height="67" x="114" y="251" maskUnits="userSpaceOnUse" style="mask-type:luminance"><path fill="#fff" d="M114.089 251.651H186v65.922h-71.911z"/></mask><g mask="url(#A)"><mask id="B" width="72" height="65" x="114" y="252" maskUnits="userSpaceOnUse" style="mask-type:luminance"><path fill="#fff" d="M185.656 252.365c-2.979 5.489-10.578 17.645-19.172 30.776a1126 1126 0 0 1-10.979 16.463 958 958 0 0 1-11.948 17.188l-28.312-19.401a56 56 0 0 1-.948-1.677c9.219-1.073 14.448.588 17.739 2.718 3.803 2.448 4.381 4.948 6.86 5.672 3.953 1.146 10.76-2.692 23.349-22.562 6.87-9.469 11.911-16.308 15.583-21.177 2.927-3.891 4.99-6.532 6.391-8.245z"/></mask><g mask="url(#B)"><path fill="#000" d="M.23-.047h379.54v510.391H.229V-.046Z"/></g></g><mask id="C" width="54" height="36" x="84" y="303" maskUnits="userSpaceOnUse" style="mask-type:luminance"><path fill="#fff" d="M84.667 303.589H138v34.958H84.667z"/></mask><g mask="url(#C)"><mask id="D" width="54" height="35" x="84" y="304" maskUnits="userSpaceOnUse" style="mask-type:luminance"><path fill="#fff" d="m137.234 329.823-6.005 8.489-46.26-32.781c4.547-1.448 8.286-1.489 10.588-1.338 8.808.599 15.172 5.38 18.068 7.557 1.583 1.193 2.854 2.25 3.833 3.224 3.198 3.167 4.209 5.687 8.74 9.146 4.229 3.224 8.37 4.854 11.036 5.713"/></mask><g mask="url(#D)"><path fill="#000" d="M.23-.047h379.54v510.391H.229V-.046Z"/></g></g><mask id="E" width="37" height="24" x="84" y="326" maskUnits="userSpaceOnUse" style="mask-type:luminance"><path fill="#fff" d="M84.125 326.562h35.958V350H84.125z"/></mask><g mask="url(#E)"><mask id="F" width="36" height="23" x="84" y="327" maskUnits="userSpaceOnUse" style="mask-type:luminance"><path fill="#fff" d="m119.906 343.13-4.557 6.443-30.954-21.932a24.3 24.3 0 0 1 7.37-.521c1.573.13 2.964.411 4.14.724a44.5 44.5 0 0 1 5.491 1.786c8.791 3.511 14.802 9.151 18.52 13.5"/></mask><g mask="url(#F)"><path fill="#000" d="M.229-.047H379.77v510.391H.229V-.046Z"/></g></g><mask id="G" width="48" height="59" x="120" y="212" maskUnits="userSpaceOnUse" style="mask-type:luminance"><path fill="#fff" d="M120.667 212.698h46.359v57.932h-46.359z"/></mask><g mask="url(#G)"><mask id="H" width="46" height="58" x="121" y="213" maskUnits="userSpaceOnUse" style="mask-type:luminance"><path fill="#fff" d="m147.115 248.37-26.099-14.849s3.52-13.51 3.833-13.729l25.448-6.568 16.068 28-24.688 29.188z"/></mask><g mask="url(#H)"><path fill="#000" d="M.23-.047h379.54v510.391H.229V-.046Z"/></g></g><mask id="I" width="55" height="37" x="163" y="256" maskUnits="userSpaceOnUse" style="mask-type:luminance"><path fill="#fff" d="M163.333 256.667h54.635v35.937h-54.635z"/></mask><g mask="url(#I)"><mask id="J" width="55" height="35" x="163" y="257" maskUnits="userSpaceOnUse" style="mask-type:luminance"><path fill="#fff" d="M217.016 283.552c-.11.37-11.599 8.292-11.599 8.292l-22.86-19.474-16.073 10.771-2.796 1.869 14.14-24.656 36.677-2.963z"/></mask><g mask="url(#J)"><path fill="#000" d="M.23-.047h379.54v510.391H.229V-.046Z"/></g></g><mask id="K" width="43" height="79" x="103" y="128" maskUnits="userSpaceOnUse" style="mask-type:luminance"><path fill="#fff" d="M103.333 128.797H146v77.906h-42.667z"/></mask><g mask="url(#K)"><mask id="L" width="42" height="78" x="104" y="129" maskUnits="userSpaceOnUse" style="mask-type:luminance"><path fill="#fff" d="m145.484 202.75-14.119 3.641-27.287-76.829z"/></mask><g mask="url(#L)"><path fill="#000" d="M.23-.047h379.54v510.391H.229V-.046Z"/></g></g><mask id="M" width="40" height="71" x="167" y="174" maskUnits="userSpaceOnUse" style="mask-type:luminance"><path fill="#fff" d="M167.333 174.745h39.646v69.917h-39.646z"/></mask><g mask="url(#M)"><mask id="N" width="40" height="71" x="167" y="174" maskUnits="userSpaceOnUse" style="mask-type:luminance"><path fill="#fff" d="m206.229 243.49-14.032 1.14-24.75-69.698z"/></mask><g mask="url(#N)"><path fill="#000" d="M.229-.047H379.77v510.391H.229V-.046Z"/></g></g><mask id="O" width="3" height="3" x="244" y="291" maskUnits="userSpaceOnUse" style="mask-type:luminance"><path fill="#fff" d="M244.933 291.604h2v1.995h-2z"/></mask><g mask="url(#O)"><mask id="P" width="2" height="1" x="245" y="292" maskUnits="userSpaceOnUse" style="mask-type:luminance"><path fill="#fff" d="m245.828 292.234-.453.349c.25.078.51.141.75.219z"/></mask><g mask="url(#P)"><path fill="#000" d="M.23-.047h379.54v510.391H.229V-.046Z"/></g></g><mask id="Q" width="149" height="65" x="106" y="427" maskUnits="userSpaceOnUse" style="mask-type:luminance"><path fill="#fff" d="M106.099 427.333h148.823v64H106.099z"/></mask><g mask="url(#Q)"><mask id="R" width="149" height="65" x="106" y="427" maskUnits="userSpaceOnUse" style="mask-type:luminance"><path fill="#fff" d="M180.458 445.224c27.808 0 50.938 19.906 55.62 46.01h17.979c-4.823-35.953-35.948-63.802-73.599-63.802s-68.77 27.849-73.599 63.802h17.98c4.677-26.104 27.796-46.01 55.609-46.01"/></mask><g mask="url(#R)"><path fill="#000" d="M.23-.047h379.54v510.391H.229V-.047Z"/></g></g><mask id="S" width="223" height="102" x="69" y="390" maskUnits="userSpaceOnUse" style="mask-type:luminance"><path fill="#fff" d="M69.145 390.484H291.88v100.849H69.146V390.484Z"/></mask><g mask="url(#S)"><mask id="T" width="223" height="102" x="69" y="390" maskUnits="userSpaceOnUse" style="mask-type:luminance"><path fill="#fff" d="M180.458 408.542c48.338 0 88.229 36.291 93.156 82.692h17.854C286.484 435 238.614 390.75 180.458 390.75c-58.162 0-106.032 44.26-111.01 100.484h17.848c4.932-46.401 44.828-82.692 93.162-82.692"/></mask><g mask="url(#T)"><path fill="#000" d="M.229-.047H379.77v510.391H.229V-.046Z"/></g></g><mask id="U" width="194" height="141" x="138" y="351" maskUnits="userSpaceOnUse" style="mask-type:luminance"><path fill="#fff" d="M138.062 351.531h193.271v139.802H138.062z"/></mask><g mask="url(#U)"><mask id="V" width="193" height="141" x="138" y="351" maskUnits="userSpaceOnUse" style="mask-type:luminance"><path fill="#fff" d="M180.458 369.734c70.021 0 127.536 53.667 132.589 121.5h17.838c-5.068-77.651-70.578-139.291-150.417-139.291-3.822 0-7.593.187-11.343.458l-30.698 24.083a133.8 133.8 0 0 1 42.031-6.75"/></mask><g mask="url(#V)"><path fill="#000" d="M.229-.047H379.77v510.391H.229V-.046Z"/></g></g><mask id="W" width="71" height="110" x="30" y="382" maskUnits="userSpaceOnUse" style="mask-type:luminance"><path fill="#fff" d="M30 382h70.667v109.333H30z"/></mask><g mask="url(#W)"><mask id="X" width="71" height="110" x="30" y="382" maskUnits="userSpaceOnUse" style="mask-type:luminance"><path fill="#fff" d="m100.157 396.443-11.01-13.959c-33.668 25.396-56.22 64.469-59.12 108.75h17.838c2.88-38.619 22.75-72.651 52.281-94.802"/></mask><g mask="url(#X)"><path fill="#000" d="M.23-.047h379.54v510.391H.229V-.046Z"/></g></g><mask id="Y" width="42" height="59" x="38" y="355" maskUnits="userSpaceOnUse" style="mask-type:luminance"><path fill="#fff" d="M38.183 355.526h41.15v57.932h-41.15z"/></mask><g mask="url(#Y)"><mask id="Z" width="41" height="58" x="39" y="355" maskUnits="userSpaceOnUse" style="mask-type:luminance"><path fill="#fff" d="m79.135 369.792-11.01-13.959a186 186 0 0 0-20.938 18.511l-8.062 38.568c10.661-16.61 24.234-31.219 40.02-43.131"/></mask><g mask="url(#Z)"><path fill="#000" d="M.23-.047h379.54v510.391H.229V-.046Z"/></g></g><mask id="aa" width="102" height="59" x="189" y="319" maskUnits="userSpaceOnUse" style="mask-type:luminance"><path fill="#fff" d="M189 319.568h101.88V377.5H189z"/></mask><g mask="url(#aa)"><mask id="ab" width="102" height="58" x="189" y="320" maskUnits="userSpaceOnUse" style="mask-type:luminance"><path fill="#fff" d="M189.766 336.203c38.562 2.099 73.651 17.167 100.932 40.818l-18.323-34.62c-19-10.797-40.099-18.38-62.547-21.927z"/></mask><g mask="url(#ab)"><path fill="#000" d="M.23-.047h379.54v510.391H.229V-.046Z"/></g></g><mask id="ac" width="5" height="8" x="53" y="338" maskUnits="userSpaceOnUse" style="mask-type:luminance"><path fill="#fff" d="M53.161 338.547H58v6.989h-4.84v-6.989Z"/></mask><g mask="url(#ac)"><mask id="ad" width="5" height="8" x="53" y="338" maskUnits="userSpaceOnUse" style="mask-type:luminance"><path fill="#fff" d="m54.635 338.714-1.338 6.38a202 202 0 0 1 3.948-3.073z"/></mask><g mask="url(#ad)"><path fill="#000" d="M.23-.047h379.54v510.391H.229V-.046Z"/></g></g><mask id="ae" width="32" height="26" x="227" y="291" maskUnits="userSpaceOnUse" style="mask-type:luminance"><path fill="#fff" d="M227.333 291.604h31.583v24.969h-31.583z"/></mask><g mask="url(#ae)"><mask id="af" width="32" height="25" x="227" y="292" maskUnits="userSpaceOnUse" style="mask-type:luminance"><path fill="#fff" d="m258.484 316.162-12.359-23.36c-.25-.078-.5-.14-.75-.219l-17.5 13.73c10.542 2.5 20.781 5.781 30.609 9.838"/></mask><g mask="url(#af)"><path fill="#000" d="M.23-.047h379.54v510.391H.229V-.046Z"/></g></g><mask id="ag" width="370" height="502" x="5" y="4" maskUnits="userSpaceOnUse" style="mask-type:luminance"><path fill="#fff" d="M5.219 4.948H374.78V506H5.219z"/></mask><g mask="url(#ag)"><mask id="ah" width="370" height="502" x="5" y="4" maskUnits="userSpaceOnUse" style="mask-type:luminance"><path fill="#fff" d="M347.36 491.234H22.745l16.38-78.323 8.073-38.578 6.11-29.239 1.28-6.11 41.558 53.068 8.781 11.198 11.198-8.776 129.943-101.792.057.12 12.36 23.349 13.89 26.25 18.323 34.62 55.927 105.693 4.511 8.52zM58.709 319.24l16.078-76.87q.312.781.61 1.562c3.88 9.86 7.76 19.719 11.63 29.578a5426 5426 0 0 0 4.75-49.395c2.65-28.933 5.041-57.875 7.239-86.844l12.75-36.068c11.422 19.318 22.833 38.63 34.25 57.948-1.557-15.771-9.099-52.458-17.177-87.99l2.25 4.25 6.76 12.782L239.297 279.9 107.349 383.27l-48.963-62.5.323-1.531Zm306.14 167.484-67.312-127.203-17.38-32.839-14.11-26.672-8.599-16.25-6.76-12.776-83.089-157-25.14-47.494-32.563-61.537-21.77 104.11-4.516 21.619L46.917 306.12l-3.807 18.224-1.542 7.37-6.161 29.458-7.688 36.771L5.23 505.474h369.547l-9.927-18.75Z"/></mask><g mask="url(#ah)"><path fill="#000" d="M.23-.047h379.54v510.391H.229V-.046Z"/></g></g><mask id="ai" width="55" height="74" x="239" y="524" maskUnits="userSpaceOnUse" style="mask-type:luminance"><path fill="#fff" d="M239.729 524.667h53.459v72.458h-53.459z"/></mask><g mask="url(#ai)"><mask id="aj" width="55" height="73" x="239" y="524" maskUnits="userSpaceOnUse" style="mask-type:luminance"><path fill="#fff" d="M278.985 576.76c0 4.933-4.536 8.943-10.12 8.943h-14.489v-49.562h14.5c5.583 0 10.119 4.01 10.119 8.948zm-8.557-51.781-23.813.031h-1.38c-.536 0-1.078 0-1.62.021h-3.719v71.87h2.834c.818.042 1.656.052 2.505.052.333 0 7.995-.021 8.771-.052l16.422-.052c12.5 0 22.682-9.016 22.682-20.099v-31.667c0-11.093-10.172-20.104-22.682-20.104"/></mask><g mask="url(#aj)"><path fill="#000" d="M234.896 519.51H366.62v82.448H234.896z"/></g></g><mask id="ak" width="66" height="73" x="296" y="524" maskUnits="userSpaceOnUse" style="mask-type:luminance"><path fill="#fff" d="M296.729 524.344h65.058v72.458h-65.058z"/></mask><g mask="url(#ak)"><mask id="al" width="66" height="73" x="296" y="524" maskUnits="userSpaceOnUse" style="mask-type:luminance"><path fill="#fff" d="m321.849 568.771 1.219-3.078 6.109-15.38 6.12 15.369 1.219 3.078zm14.24-34.391-3.553-7.817-.927-2.053h-4.833l-.927 2.053-3.563 7.838-25.52 62.313h13.968l7.172-18.032h22.563l7.166 18.032h13.98z"/></mask><g mask="url(#al)"><path fill="#000" d="M234.896 519.51h131.723v82.448H234.896z"/></g></g><mask id="am" width="19" height="28" x="301" y="612" maskUnits="userSpaceOnUse" style="mask-type:luminance"><path fill="#fff" d="M301.719 612.208h17.515v26.886h-17.515z"/></mask><g mask="url(#am)"><mask id="an" width="19" height="28" x="301" y="612" maskUnits="userSpaceOnUse" style="mask-type:luminance"><path fill="#fff" d="M305.359 639.047h-2.25l-.192-.01v-3.433l2.198.011h6.031c2.432 0 4.411-1.86 4.411-4.141 0-2.239-1.869-4.057-4.26-4.13h-1.599a8.4 8.4 0 0 1-4.401-1.276 8.5 8.5 0 0 1-1.781-1.521c-1.177-1.359-1.797-3.01-1.797-4.771 0-2.302 1.099-4.458 3.026-5.901a8.33 8.33 0 0 1 4.953-1.667h7.901q.164-.001.328.006l.188.01v3.38l-.177.011c-.11.01-.219.01-.329.021h-7.953c-2.39.072-4.26 1.89-4.26 4.13 0 2.219 1.932 4.078 4.292 4.14h1.567a8.53 8.53 0 0 1 4.313 1.23c.218.13.427.281.63.432q.625.477 1.141 1.047c1.218 1.359 1.89 3.083 1.89 4.859 0 2.021-.844 3.922-2.37 5.354-1.531 1.427-3.562 2.219-5.724 2.219z"/></mask><g mask="url(#an)"><path fill="#000" d="M301.719 612.208h17.515v26.818h-17.515z"/></g></g></g><defs><clipPath id="a"><path fill="#fff" d="M0 0h380v639H0z"/></clipPath></defs></svg>